<svg width="500" height="500" viewBox="0 0 500 500" fill="none" xmlns="http://www.w3.org/2000/svg">
<g clip-path="url(#clip0_2686_1526)">
<path d="M0 163.636C0 73.2625 73.2625 0 163.636 0H336.364C426.738 0 500 73.2625 500 163.636V336.364C500 426.738 426.738 500 336.364 500H163.636C73.2625 500 0 426.738 0 336.364V163.636Z" fill="#CCFF00"/>
<path d="M354.676 102.524C368.197 89.0715 390.119 89.0715 403.64 102.524C417.161 115.976 417.161 137.786 403.64 151.238C390.119 164.691 368.197 164.691 354.676 151.238C341.155 137.786 341.155 115.976 354.676 102.524Z" fill="black"/>
<path d="M98.6545 226.717C98.6545 160.132 152.908 106.154 219.834 106.154H292.525C305.448 106.154 316.404 115.608 318.231 128.335L319.439 136.749C323.248 163.271 344.193 184.111 370.851 187.899L379.308 189.101C392.101 190.92 401.603 201.787 401.603 214.643C401.603 232.01 401.603 257.962 401.603 286.979C401.603 353.564 347.349 407.561 280.424 407.561H219.834C152.908 407.561 98.6545 353.583 98.6545 286.998V226.717Z" fill="black"/>
<path d="M296.338 213.363V273.662C296.338 276.513 297.215 278.705 298.969 280.021C300.723 281.556 302.916 282.214 305.766 282.214C310.59 282.214 314.537 278.925 317.388 272.127C320.019 265.33 321.554 257.217 321.554 248.007C321.554 228.931 314.756 213.363 301.381 201.522C288.005 189.682 271.341 183.761 251.607 183.761C230.337 183.761 212.577 190.778 198.324 204.373C184.072 217.968 177.055 235.29 177.055 256.12C177.055 276.951 183.852 294.054 197.886 307.21C211.919 320.367 229.46 326.945 250.949 326.945C266.163 326.945 280.629 322.756 294.346 314.378C299.105 311.471 305.461 312.599 308.417 317.328C310.922 321.335 310.128 326.626 306.247 329.324C290.868 340.017 272.605 345.363 251.168 345.363C223.54 345.363 200.955 337.031 183.414 320.367C165.653 303.702 156.882 282.652 156.882 256.778C156.882 230.466 165.872 208.758 184.072 191.436C202.271 174.114 224.856 165.343 251.607 165.343C276.823 165.343 298.092 173.236 315.414 188.585C332.736 203.934 341.507 223.669 341.507 247.569C341.507 254.147 340.63 260.287 339.315 265.988C337.78 271.689 335.368 277.39 332.298 282.871C329.228 288.353 324.623 292.739 318.703 295.808C312.564 299.097 305.547 300.632 297.434 300.632C283.839 300.632 274.63 296.247 269.806 287.257C263.228 296.028 253.58 300.413 240.862 300.413C228.583 300.413 218.497 296.466 210.603 288.353C202.709 280.459 198.763 269.496 198.763 255.901C198.763 242.306 202.709 231.562 210.822 223.449C218.716 215.556 228.803 211.389 240.862 211.389C251.387 211.389 259.939 214.678 266.517 221.037V213.363H296.338ZM249.633 273.443C254.238 273.443 258.185 271.908 261.474 268.619C264.763 265.33 266.517 260.944 266.517 255.463C266.517 250.2 264.763 246.034 261.474 242.745C258.185 239.675 254.238 237.921 249.633 237.921C244.809 237.921 240.862 239.675 237.573 242.745C234.065 246.034 232.53 250.2 232.53 255.463C232.53 260.944 234.065 265.33 237.573 268.619C240.862 271.908 244.809 273.443 249.633 273.443Z" fill="#CCFF00"/>
</g>
<defs>
<clipPath id="clip0_2686_1526">
<rect width="500" height="500" fill="white"/>
</clipPath>
</defs>
</svg>
