<svg xmlns="http://www.w3.org/2000/svg" width="37" height="37" viewBox="0 0 37 37" fill="none">
<g id="Group 1000001470">
<g id="Group 1000001461">
<path id="Rectangle 39845" d="M0.318726 11.9635C0.318726 5.35624 5.69345 0 12.3235 0H24.9952C31.6253 0 37 5.35624 37 11.9635V24.5916C37 31.1989 31.6253 36.5551 24.9952 36.5551H12.3235C5.69345 36.5551 0.318726 31.1989 0.318726 24.5916V11.9635Z" fill="#CCFF00"/>
</g>
<g id="Vector">
<path d="M27.9351 4.81783C29.1601 3.59702 31.1463 3.59702 32.3713 4.81783C33.5963 6.03864 33.5963 8.01797 32.3713 9.23878C31.1463 10.4596 29.1601 10.4596 27.9351 9.23878C26.7101 8.01797 26.7101 6.03864 27.9351 4.81783Z" fill="black"/>
<path d="M4.73914 16.0886C4.73914 10.0459 9.65462 5.14728 15.7182 5.14728H22.3041C23.4749 5.14728 24.4676 6.00523 24.6331 7.16027L24.7426 7.92384C25.0876 10.3308 26.9853 12.222 29.4006 12.5658L30.1668 12.6749C31.3258 12.8399 32.1868 13.8261 32.1868 14.9929C32.1868 16.569 32.1868 18.9241 32.1868 21.5575C32.1868 27.6002 27.2713 32.5005 21.2077 32.5005H15.7182C9.65462 32.5005 4.73914 27.6019 4.73914 21.5592V16.0886Z" fill="black"/>
</g>
<path id="@" d="M22.7522 14.9826V20.4633C22.7522 20.7224 22.8322 20.9217 22.9921 21.0413C23.1521 21.1808 23.3521 21.2406 23.6121 21.2406C24.0521 21.2406 24.4121 20.9416 24.672 20.3238C24.912 19.706 25.052 18.9686 25.052 18.1315C25.052 16.3976 24.432 14.9826 23.2121 13.9064C21.9922 12.8301 20.4723 12.292 18.6724 12.292C16.7325 12.292 15.1126 12.9298 13.8127 14.1655C12.5128 15.4011 11.8728 16.9756 11.8728 18.8689C11.8728 20.7623 12.4928 22.3168 13.7727 23.5126C15.0526 24.7084 16.6525 25.3063 18.6124 25.3063C20.0013 25.3063 21.3218 24.9249 22.574 24.162C23.0064 23.8985 23.5833 24.0009 23.8524 24.4299C24.0815 24.7952 24.009 25.2781 23.6545 25.5236C22.2521 26.4948 20.5869 26.9804 18.6324 26.9804C16.1126 26.9804 14.0527 26.2231 12.4528 24.7084C10.8329 23.1937 10.033 21.2805 10.033 18.9287C10.033 16.5371 10.8529 14.5641 12.5128 12.9896C14.1727 11.4151 16.2326 10.6179 18.6724 10.6179C20.9723 10.6179 22.9121 11.3354 24.492 12.7305C26.0719 14.1256 26.8719 15.9193 26.8719 18.0917C26.8719 18.6896 26.7919 19.2476 26.6719 19.7658C26.5319 20.284 26.3119 20.8021 26.0319 21.3004C25.752 21.7986 25.332 22.1972 24.792 22.4763C24.2321 22.7752 23.5921 22.9147 22.8521 22.9147C21.6122 22.9147 20.7723 22.5161 20.3323 21.699C19.7323 22.4962 18.8524 22.8948 17.6925 22.8948C16.5725 22.8948 15.6526 22.536 14.9326 21.7986C14.2127 21.0812 13.8527 20.0847 13.8527 18.849C13.8527 17.6133 14.2127 16.6368 14.9526 15.8994C15.6726 15.1819 16.5925 14.8032 17.6925 14.8032C18.6524 14.8032 19.4324 15.1022 20.0323 15.6801V14.9826H22.7522ZM18.4924 20.4434C18.9124 20.4434 19.2724 20.3039 19.5724 20.0049C19.8723 19.706 20.0323 19.3074 20.0323 18.8091C20.0323 18.3308 19.8723 17.9521 19.5724 17.6532C19.2724 17.3742 18.9124 17.2147 18.4924 17.2147C18.0525 17.2147 17.6925 17.3742 17.3925 17.6532C17.0725 17.9521 16.9325 18.3308 16.9325 18.8091C16.9325 19.3074 17.0725 19.706 17.3925 20.0049C17.6925 20.3039 18.0525 20.4434 18.4924 20.4434Z" fill="#CCFF00"/>
</g>
</svg>
